<svg xmlns="http://www.w3.org/2000/svg" xmlns:xlink="http://www.w3.org/1999/xlink" width="2000" zoomAndPan="magnify" viewBox="0 0 1500 1499.999933" height="2000" preserveAspectRatio="xMidYMid meet" version="1.0"><defs><g/><clipPath id="cceb3fb7c2"><path d="M 47.015625 464.246094 L 647.015625 464.246094 L 647.015625 1064.246094 L 47.015625 1064.246094 Z M 47.015625 464.246094 " clip-rule="nonzero"/></clipPath><clipPath id="62ba0cc5fb"><rect x="0" width="790" y="0" height="246"/></clipPath></defs><rect x="-150" width="1800" fill="#ffffff" y="-149.999993" height="1799.99992" fill-opacity="1"/><rect x="-150" width="1800" fill="#000000" y="-149.999993" height="1799.99992" fill-opacity="1"/><g clip-path="url(#cceb3fb7c2)"><path fill="#ffffff" d="M 346.941406 464.246094 C 347.003906 721.390625 304.15625 764.257812 47.015625 764.320312 C 304.15625 764.257812 347.023438 807.105469 347.089844 1064.246094 C 347.023438 807.105469 389.871094 764.238281 647.015625 764.171875 C 389.871094 764.238281 347.003906 721.390625 346.941406 464.246094 " fill-opacity="1" fill-rule="nonzero"/></g><g transform="matrix(1, 0, 0, 1, 612, 626)"><g clip-path="url(#62ba0cc5fb)"><g fill="#ffffff" fill-opacity="1"><g transform="translate(0.31972, 184.925324)"><g><path d="M 118.574219 0 L 72.546875 -118.742188 L 46.195312 -118.742188 L 1 0 L 24.183594 0 L 33.355469 -26.183594 L 85.386719 -26.183594 L 94.726562 0 Z M 44.695312 -58.203125 C 48.699219 -69.042969 54.367188 -84.886719 59.203125 -98.898438 C 64.039062 -84.886719 69.710938 -69.042969 73.878906 -58.203125 L 78.550781 -45.363281 L 40.191406 -45.363281 Z M 44.695312 -58.203125 "/></g></g></g><g fill="#ffffff" fill-opacity="1"><g transform="translate(119.054285, 184.925324)"><g><path d="M 56.203125 -88.054688 C 43.695312 -88.054688 34.523438 -82.71875 28.683594 -73.714844 L 28.683594 -86.054688 L 8.503906 -86.054688 L 8.503906 32.6875 L 29.519531 32.6875 L 29.519531 -11.171875 C 35.355469 -2.835938 44.195312 2 56.203125 2 C 79.882812 2 94.726562 -15.675781 94.726562 -43.027344 C 94.726562 -70.378906 79.882812 -88.054688 56.203125 -88.054688 Z M 51.199219 -15.34375 C 37.523438 -15.34375 29.019531 -24.847656 29.019531 -43.027344 C 29.019531 -61.207031 37.523438 -70.710938 51.199219 -70.710938 C 64.875 -70.710938 73.378906 -61.871094 73.378906 -43.695312 C 73.378906 -25.515625 64.875 -15.34375 51.199219 -15.34375 Z M 51.199219 -15.34375 "/></g></g></g><g fill="#ffffff" fill-opacity="1"><g transform="translate(218.444503, 184.925324)"><g><path d="M 47.53125 2 C 68.210938 2 83.054688 -9.339844 87.554688 -26.683594 L 67.210938 -26.683594 C 64.207031 -19.011719 57.703125 -14.34375 47.695312 -14.34375 C 35.523438 -14.34375 27.015625 -21.347656 25.347656 -36.523438 L 89.722656 -36.523438 L 89.722656 -41.527344 C 89.722656 -68.878906 73.546875 -88.054688 47.195312 -88.054688 C 21.679688 -88.054688 4.667969 -70.042969 4.667969 -43.027344 C 4.667969 -15.511719 22.179688 2 47.53125 2 Z M 25.515625 -51.199219 C 27.519531 -65.207031 35.855469 -71.710938 47.03125 -71.710938 C 59.539062 -71.710938 67.042969 -63.375 68.710938 -51.199219 Z M 25.515625 -51.199219 "/></g></g></g><g fill="#ffffff" fill-opacity="1"><g transform="translate(305.827364, 184.925324)"><g><path d="M 86.222656 -86.054688 L 62.707031 -86.054688 L 58.203125 -79.71875 C 53.699219 -73.046875 48.863281 -66.042969 44.527344 -59.371094 C 40.027344 -66.207031 35.523438 -72.878906 30.6875 -79.71875 L 26.183594 -86.054688 L 2.167969 -86.054688 L 32.6875 -43.863281 L 0.5 0 L 24.015625 0 L 27.183594 -4.503906 C 32.855469 -12.507812 38.523438 -20.847656 44.027344 -28.851562 C 49.53125 -20.847656 55.035156 -12.675781 60.707031 -4.503906 L 63.875 0 L 87.890625 0 L 55.867188 -44.195312 Z M 86.222656 -86.054688 "/></g></g></g><g fill="#ffffff" fill-opacity="1"><g transform="translate(392.043228, 184.925324)"><g><path d="M 42.359375 2.335938 C 66.375 2.335938 80.550781 -7.339844 80.550781 -24.683594 C 80.550781 -39.523438 71.378906 -47.195312 50.699219 -50.867188 L 39.859375 -52.535156 C 30.519531 -54.203125 25.515625 -56.703125 25.515625 -63.039062 C 25.515625 -69.210938 30.351562 -73.046875 40.527344 -73.046875 C 51.367188 -73.046875 58.203125 -69.878906 58.703125 -58.871094 L 78.550781 -58.871094 C 77.882812 -76.550781 67.042969 -88.054688 40.527344 -88.054688 C 17.511719 -88.054688 4.835938 -78.214844 4.835938 -62.039062 C 4.835938 -47.363281 14.507812 -39.191406 33.019531 -36.023438 L 42.859375 -34.355469 C 55.867188 -32.1875 59.703125 -29.183594 59.703125 -23.015625 C 59.703125 -16.511719 54.867188 -12.675781 42.695312 -12.675781 C 30.1875 -12.675781 24.683594 -16.511719 23.515625 -27.351562 L 3 -27.351562 C 4.335938 -6.503906 17.84375 2.335938 42.359375 2.335938 Z M 42.359375 2.335938 "/></g></g></g><g fill="#ffffff" fill-opacity="1"><g transform="translate(475.257526, 184.925324)"><g><path d="M 47.195312 2 C 69.210938 2 85.222656 -11.007812 87.554688 -32.019531 L 66.542969 -32.019531 C 64.875 -20.679688 56.703125 -15.511719 47.195312 -15.511719 C 35.023438 -15.511719 26.183594 -24.183594 26.183594 -43.027344 C 26.183594 -61.871094 34.6875 -70.546875 47.195312 -70.546875 C 56.535156 -70.546875 64.207031 -65.707031 66.207031 -55.035156 L 87.222656 -55.035156 C 84.722656 -75.214844 69.710938 -88.054688 47.195312 -88.054688 C 21.515625 -88.054688 4.667969 -70.546875 4.667969 -43.027344 C 4.667969 -15.511719 21.679688 2 47.195312 2 Z M 47.195312 2 "/></g></g></g><g fill="#ffffff" fill-opacity="1"><g transform="translate(566.476467, 184.925324)"><g><path d="M 85.886719 0 C 83.554688 -3.335938 82.386719 -10.171875 82.386719 -16.34375 L 82.386719 -62.207031 C 82.386719 -77.714844 72.210938 -88.054688 46.53125 -88.054688 C 19.679688 -88.054688 9.003906 -76.882812 7.839844 -58.703125 L 28.519531 -58.703125 C 29.351562 -69.210938 34.355469 -72.378906 46.363281 -72.378906 C 58.539062 -72.378906 62.039062 -68.378906 62.039062 -61.707031 C 62.039062 -55.367188 57.871094 -52.867188 49.863281 -51.867188 L 36.855469 -50.699219 C 12.507812 -48.363281 3.835938 -38.191406 3.835938 -23.847656 C 3.835938 -7.171875 16.511719 2 34.855469 2 C 47.53125 2 56.871094 -2.5 62.539062 -10.507812 C 62.875 -6.335938 63.539062 -2.335938 64.875 0 Z M 39.859375 -13.007812 C 30.1875 -13.007812 25.347656 -17.511719 25.347656 -24.683594 C 25.347656 -31.519531 29.183594 -35.691406 40.859375 -37.023438 L 52.199219 -38.359375 C 56.703125 -38.859375 59.871094 -39.859375 62.039062 -41.859375 L 62.039062 -34.023438 C 62.039062 -19.011719 51.03125 -13.007812 39.859375 -13.007812 Z M 39.859375 -13.007812 "/></g></g></g><g fill="#ffffff" fill-opacity="1"><g transform="translate(655.860902, 184.925324)"><g><path d="M 29.519531 0 L 29.519531 -118.742188 L 8.503906 -118.742188 L 8.503906 0 Z M 29.519531 0 "/></g></g></g><g fill="#ffffff" fill-opacity="1"><g transform="translate(693.882645, 184.925324)"><g><path d="M 47.53125 2 C 68.210938 2 83.054688 -9.339844 87.554688 -26.683594 L 67.210938 -26.683594 C 64.207031 -19.011719 57.703125 -14.34375 47.695312 -14.34375 C 35.523438 -14.34375 27.015625 -21.347656 25.347656 -36.523438 L 89.722656 -36.523438 L 89.722656 -41.527344 C 89.722656 -68.878906 73.546875 -88.054688 47.195312 -88.054688 C 21.679688 -88.054688 4.667969 -70.042969 4.667969 -43.027344 C 4.667969 -15.511719 22.179688 2 47.53125 2 Z M 25.515625 -51.199219 C 27.519531 -65.207031 35.855469 -71.710938 47.03125 -71.710938 C 59.539062 -71.710938 67.042969 -63.375 68.710938 -51.199219 Z M 25.515625 -51.199219 "/></g></g></g><g fill="#ffffff" fill-opacity="1"><g transform="translate(788.605864, 184.925324)"><g/></g></g></g></g></svg>