<svg xmlns="http://www.w3.org/2000/svg" xmlns:xlink="http://www.w3.org/1999/xlink" width="2000" zoomAndPan="magnify" viewBox="0 0 1500 1499.999933" height="2000" preserveAspectRatio="xMidYMid meet" version="1.0"><defs><clipPath id="f4f67d2e1f"><path d="M 8.183594 1 L 734 1 L 734 1262 L 8.183594 1262 Z M 8.183594 1 " clip-rule="nonzero"/></clipPath><clipPath id="895f4ef2b5"><path d="M 372 1 L 1491.683594 1 L 1491.683594 735 L 372 735 Z M 372 1 " clip-rule="nonzero"/></clipPath><clipPath id="689c801786"><path d="M 8.183594 763 L 1124 763 L 1124 1500 L 8.183594 1500 Z M 8.183594 763 " clip-rule="nonzero"/></clipPath><clipPath id="885f4f233f"><path d="M 761 240 L 1491.683594 240 L 1491.683594 1500 L 761 1500 Z M 761 240 " clip-rule="nonzero"/></clipPath><clipPath id="3782be6ce4"><path d="M 359 488 L 1491.683594 488 L 1491.683594 1500 L 359 1500 Z M 359 488 " clip-rule="nonzero"/></clipPath><clipPath id="a012bbc2a8"><path d="M 8.183594 1 L 1131 1 L 1131 769 L 8.183594 769 Z M 8.183594 1 " clip-rule="nonzero"/></clipPath></defs><g clip-path="url(#f4f67d2e1f)"><path fill="#ffffff" d="M 362.988281 1261.875 C 361.898438 1261.875 360.878906 1261.363281 360.234375 1260.445312 L 9.03125 769.347656 C 8.316406 768.328125 8.183594 767.035156 8.726562 765.914062 L 373.121094 3.222656 C 373.632812 2.132812 374.683594 1.417969 375.875 1.316406 C 377.101562 1.179688 378.222656 1.722656 378.9375 2.710938 L 733.128906 489.558594 C 733.878906 490.578125 733.980469 491.902344 733.4375 493.027344 L 366.046875 1259.96875 C 365.539062 1261.058594 364.484375 1261.773438 363.292969 1261.875 C 363.191406 1261.875 363.089844 1261.875 362.988281 1261.875 Z M 15.730469 767.035156 L 362.410156 1251.808594 L 726.429688 491.902344 L 376.828125 11.3125 Z M 15.730469 767.035156 " fill-opacity="1" fill-rule="nonzero"/></g><g clip-path="url(#895f4ef2b5)"><path fill="#ffffff" d="M 1488.171875 734.597656 C 1487.832031 734.597656 1487.492188 734.527344 1487.152344 734.425781 L 729.355469 494.792969 C 728.675781 494.589844 728.0625 494.148438 727.621094 493.535156 L 373.460938 6.6875 C 372.609375 5.5 372.609375 3.902344 373.460938 2.710938 C 374.3125 1.519531 375.839844 1.011719 377.234375 1.453125 L 1130.953125 240.746094 C 1131.632812 240.949219 1132.242188 241.390625 1132.652344 241.96875 L 1490.894531 729.15625 C 1491.777344 730.34375 1491.777344 731.945312 1490.894531 733.132812 C 1490.246094 734.050781 1489.191406 734.5625 1488.136719 734.5625 Z M 732.484375 488.640625 L 1479.261719 724.800781 L 1127.859375 246.933594 L 385.058594 11.074219 Z M 732.484375 488.640625 " fill-opacity="1" fill-rule="nonzero"/></g><g clip-path="url(#689c801786)"><path fill="#ffffff" d="M 1120.476562 1499.160156 C 1120.136719 1499.160156 1119.796875 1499.125 1119.457031 1498.988281 L 361.96875 1261.703125 C 361.253906 1261.5 360.640625 1261.023438 360.234375 1260.445312 L 9.03125 769.347656 C 8.183594 768.160156 8.183594 766.558594 9.03125 765.371094 C 9.882812 764.179688 11.414062 763.667969 12.804688 764.113281 L 766.25 1001.089844 C 766.964844 1001.296875 767.542969 1001.738281 767.984375 1002.347656 L 1123.234375 1493.753906 C 1124.082031 1494.941406 1124.082031 1496.539062 1123.234375 1497.730469 C 1122.585938 1498.648438 1121.53125 1499.160156 1120.476562 1499.160156 Z M 365.0625 1255.582031 L 1111.707031 1489.46875 L 763.089844 1007.28125 L 20.421875 773.703125 L 365.027344 1255.582031 Z M 365.0625 1255.582031 " fill-opacity="1" fill-rule="nonzero"/></g><g clip-path="url(#885f4f233f)"><path fill="#ffffff" d="M 1120.476562 1499.160156 C 1119.390625 1499.160156 1118.371094 1498.648438 1117.722656 1497.765625 L 762.476562 1006.363281 C 761.761719 1005.34375 761.625 1004.015625 762.171875 1002.894531 L 1126.871094 242.546875 C 1127.382812 241.457031 1128.433594 240.746094 1129.625 240.640625 C 1130.78125 240.539062 1131.972656 241.050781 1132.6875 242.003906 L 1490.925781 729.1875 C 1491.675781 730.210938 1491.8125 731.535156 1491.265625 732.691406 L 1123.574219 1497.253906 C 1123.0625 1498.34375 1122.007812 1499.058594 1120.820312 1499.160156 C 1120.714844 1499.160156 1120.613281 1499.160156 1120.511719 1499.160156 Z M 769.140625 1004.015625 L 1119.867188 1489.160156 L 1484.195312 731.570312 L 1130.511719 250.605469 Z M 769.140625 1004.015625 " fill-opacity="1" fill-rule="nonzero"/></g><g clip-path="url(#3782be6ce4)"><path fill="#ffffff" d="M 1120.476562 1499.160156 C 1120.136719 1499.160156 1119.796875 1499.125 1119.457031 1498.988281 L 361.96875 1261.703125 C 361.015625 1261.398438 360.265625 1260.71875 359.859375 1259.800781 C 359.453125 1258.882812 359.484375 1257.863281 359.894531 1256.976562 L 727.28125 490.035156 C 728.027344 488.503906 729.761719 487.753906 731.363281 488.265625 L 1489.160156 727.898438 C 1490.109375 728.203125 1490.859375 728.882812 1491.265625 729.800781 C 1491.675781 730.71875 1491.640625 731.738281 1491.199219 732.625 L 1123.503906 1497.1875 C 1122.925781 1498.378906 1121.703125 1499.125 1120.445312 1499.125 Z M 367.75 1256.398438 L 1118.710938 1491.644531 L 1483.410156 733.234375 L 732.175781 495.679688 Z M 367.75 1256.398438 " fill-opacity="1" fill-rule="nonzero"/></g><g clip-path="url(#a012bbc2a8)"><path fill="#ffffff" d="M 14.847656 768.839844 L 8.726562 765.914062 L 373.121094 3.222656 C 373.871094 1.691406 375.605469 0.941406 377.234375 1.453125 L 1130.953125 240.746094 L 1128.878906 247.238281 L 377.984375 8.832031 Z M 14.847656 768.839844 " fill-opacity="1" fill-rule="nonzero"/></g><path fill="#ffffff" d="M 443.273438 1105.996094 C 442.183594 1105.996094 441.164062 1105.484375 440.519531 1104.566406 L 200.886719 769.484375 C 200.171875 768.464844 200.035156 767.171875 200.582031 766.050781 L 449.222656 245.640625 C 449.734375 244.550781 450.789062 243.839844 451.976562 243.738281 C 453.203125 243.601562 454.324219 244.144531 455.039062 245.128906 L 696.710938 577.324219 C 697.457031 578.34375 697.5625 579.671875 697.015625 580.792969 L 446.332031 1104.089844 C 445.824219 1105.179688 444.769531 1105.894531 443.546875 1105.996094 C 443.441406 1105.996094 443.339844 1105.996094 443.238281 1105.996094 Z M 207.585938 767.171875 L 442.695312 1095.964844 L 690.011719 579.671875 L 452.894531 253.734375 Z M 207.585938 767.171875 " fill-opacity="1" fill-rule="nonzero"/><path fill="#ffffff" d="M 1211.03125 746.191406 C 1210.691406 746.191406 1210.351562 746.125 1210.011719 746.019531 L 692.9375 582.492188 C 692.257812 582.289062 691.644531 581.847656 691.203125 581.234375 L 449.53125 249.042969 C 448.679688 247.851562 448.679688 246.253906 449.53125 245.0625 C 450.378906 243.871094 451.910156 243.363281 453.304688 243.804688 L 967.59375 407.09375 C 968.273438 407.300781 968.886719 407.742188 969.292969 408.320312 L 1213.753906 740.75 C 1214.636719 741.941406 1214.636719 743.539062 1213.753906 744.730469 C 1213.109375 745.648438 1212.054688 746.15625 1211 746.15625 Z M 696.066406 576.371094 L 1202.125 736.398438 L 964.5 413.285156 L 461.125 253.460938 L 696.03125 576.371094 Z M 696.066406 576.371094 " fill-opacity="1" fill-rule="nonzero"/><path fill="#ffffff" d="M 960.144531 1267.925781 C 959.804688 1267.925781 959.464844 1267.894531 959.125 1267.757812 L 442.253906 1105.859375 C 441.539062 1105.65625 440.925781 1105.179688 440.519531 1104.601562 L 200.886719 769.519531 C 200.035156 768.328125 200.035156 766.730469 200.886719 765.539062 C 201.738281 764.351562 203.265625 763.839844 204.660156 764.28125 L 718.78125 925.976562 C 719.492188 926.179688 720.070312 926.621094 720.515625 927.234375 L 962.933594 1262.519531 C 963.785156 1263.710938 963.785156 1265.308594 962.933594 1266.5 C 962.289062 1267.417969 961.234375 1267.925781 960.179688 1267.925781 Z M 445.382812 1099.707031 L 951.40625 1258.203125 L 715.652344 932.128906 L 212.3125 773.804688 L 445.382812 1099.703125 Z M 445.382812 1099.707031 " fill-opacity="1" fill-rule="nonzero"/><path fill="#ffffff" d="M 960.144531 1267.925781 C 959.058594 1267.925781 958.039062 1267.417969 957.390625 1266.53125 L 714.972656 931.246094 C 714.257812 930.226562 714.121094 928.898438 714.664062 927.777344 L 963.511719 408.964844 C 964.023438 407.878906 965.078125 407.164062 966.265625 407.0625 C 967.457031 406.925781 968.613281 407.46875 969.328125 408.421875 L 1213.789062 740.851562 C 1214.535156 741.871094 1214.671875 743.199219 1214.128906 744.355469 L 963.242188 1266.054688 C 962.730469 1267.144531 961.675781 1267.859375 960.484375 1267.960938 C 960.382812 1267.960938 960.28125 1267.960938 960.179688 1267.960938 Z M 721.671875 928.863281 L 959.535156 1257.894531 L 1207.054688 743.164062 L 967.183594 416.957031 L 721.671875 928.832031 Z M 721.671875 928.863281 " fill-opacity="1" fill-rule="nonzero"/><path fill="#ffffff" d="M 960.144531 1267.925781 C 959.804688 1267.925781 959.464844 1267.894531 959.125 1267.757812 L 442.253906 1105.859375 C 441.300781 1105.554688 440.554688 1104.875 440.144531 1103.957031 C 439.738281 1103.039062 439.769531 1102.015625 440.179688 1101.132812 L 690.863281 577.832031 C 691.609375 576.304688 693.34375 575.554688 694.941406 576.066406 L 1212.019531 739.59375 C 1212.972656 739.902344 1213.71875 740.582031 1214.128906 741.5 C 1214.535156 742.417969 1214.5 743.4375 1214.058594 744.320312 L 963.171875 1266.023438 C 962.59375 1267.210938 961.371094 1267.960938 960.113281 1267.960938 Z M 448.035156 1100.554688 L 958.34375 1260.410156 L 1206.273438 744.898438 L 695.757812 583.445312 Z M 448.035156 1100.554688 " fill-opacity="1" fill-rule="nonzero"/><path fill="#ffffff" d="M 206.703125 768.972656 L 200.582031 766.050781 L 449.222656 245.640625 C 449.9375 244.109375 451.707031 243.363281 453.339844 243.871094 L 967.628906 407.164062 L 965.550781 413.660156 L 454.085938 251.25 L 206.703125 768.976562 Z M 206.703125 768.972656 " fill-opacity="1" fill-rule="nonzero"/></svg>